<svg xmlns="http://www.w3.org/2000/svg" width="410" height="404" viewBox="0 0 410 404" fill="none">
  <path d="M399.641 59.5243L224.294 373.5c-3.05 5.42-10.862 5.53-14.063.19L10.5495 59.5523c-3.37-5.32 1.07-12.08 7.36-11.2l186.2 27.02c.86.13 1.73.13 2.59 0l186.12-27c6.29-.91 10.75 5.84 7.42 11.15Z" fill="#646CFF"/>
  <path d="M292.965 29.0594L155.283 54.0882c-2.27.41-3.93 2.36-3.97 4.67l-8.47 151.2c-.05 2.91 2.56 5.12 5.4 4.56l38.32-7.61c3.58-.71 6.63 2.5 5.75 6.04l-11.39 46.02c-.92 3.72 2.52 6.97 6.22 5.88l23.66-6.99c3.7-1.09 7.14 2.16 6.22 5.88l-18.09 72.99c-1.13 4.57 4.92 7.54 7.96 3.92l2.03-2.42c2.08-2.49 3.69-5.32 4.74-8.37l.01-.02 72.32-206.16c1.19-3.39-1.73-6.84-5.29-6.27l-50.85 8.05c-3.6.57-6.55-2.91-5.3-6.33l50.02-136.84c1.14-3.12-1.47-6.29-4.77-5.69Z" fill="#FFB300"/>
</svg>

